#!OML:ASF H:\Terrain\Patient Classification 1\Animal2\Wednesday\Animal2.ASF
:FULLY-SPECIFIED
:DEGREES
1670
root 13.2653 18.2402 9.20178 12.8217 -4.25052 0.359483
lowerback 5.60796 -2.1701 -0.0554716
upperback -5.24001 -3.01178 -0.998511
thorax -8.72474 -1.50834 -0.628567
lowerneck 7.28594 5.14607 14.2594
upperneck -40.0734 3.19686 -21.2138
head -13.9296 1.9429 -12.3489
rclavicle -3.55328e-014 9.14409e-015
rhumerus -34.2326 22.1427 -53.986
rradius 137.619
rwrist 1.64043
rhand -20.8984 28.826
rfingers 7.12502
rthumb 5.47241 -1.08331
lclavicle -3.55328e-014 9.14409e-015
lhumerus -22.3215 -22.0458 33.7435
lradius 135.433
lwrist 40.7836
lhand -4.26272 5.89606
lfingers 7.12502
lthumb 21.5017 34.7227
rfemur -17.6939 -4.36024 21.9733
rtibia 22.4762
rfoot -14.3288 8.18609
rtoes 32.0052
lfemur -14.1449 -2.11087 -19.8349
ltibia 17.0901
lfoot -13.486 -1.26377
ltoes -28.719
1671
root 13.2663 18.2743 9.19339 13.2138 -4.06307 0.381332
lowerback 5.22689 -2.11803 0.1405
upperback -5.30201 -2.92603 -1.052
thorax -8.57977 -1.48213 -0.819125
lowerneck 6.77276 5.03707 14.056
upperneck -40.2674 2.91712 -21.1401
head -13.9912 1.81318 -12.2611
rclavicle 6.31141e-015 -8.34896e-015
rhumerus -36.3042 26.5542 -57.8907
rradius 136.165
rwrist 2.7414
rhand -19.8608 29.9349
rfingers 7.12502
rthumb 6.47424 0.0538893
lclavicle 6.31141e-015 -8.34896e-015
lhumerus -22.5848 -21.866 35.5072
lradius 135.103
lwrist 40.0039
lhand -3.95632 6.10989
lfingers 7.12502
lthumb 21.7959 34.9026
rfemur -18.2625 -4.72438 22.075
rtibia 22.5861
rfoot -13.8723 7.86543
rtoes 30.704
lfemur -14.6874 -2.47682 -19.6893
ltibia 17.0389
lfoot -12.8554 -1.63851
ltoes -28.6698
1672
root 13.2708 18.3093 9.18892 13.5377 -3.93189 0.402536
lowerback 4.93563 -2.08568 0.317987
upperback -5.30276 -2.87302 -1.15525
thorax -8.42333 -1.47176 -1.04466
lowerneck 5.95122 5.06189 14.0773
upperneck -40.3368 2.88317 -21.015
head -13.8436 1.75918 -12.1467
rclavicle 3.01656e-014 -1.35174e-014
rhumerus -38.1959 30.3642 -61.8486
rradius 134.121
rwrist 4.60429
rhand -18.6451 31.7806
rfingers 7.12502
rthumb 7.64772 1.93883
lclavicle 3.01656e-014 -1.35174e-014
lhumerus -23.3124 -22.7033 37.7282
lradius 134.767
lwrist 38.5606
lhand -2.98652 5.83878
lfingers 7.12502
lthumb 22.7269 34.5203
rfemur -18.6378 -5.33322 22.1466
rtibia 22.4589
rfoot -13.3538 7.89891
rtoes 28.7044
lfemur -15.2516 -2.70459 -19.5902
ltibia 17.2909
lfoot -12.3284 -2.04051
ltoes -28.659
1673
root 13.2763 18.3358 9.18545 13.8554 -3.81947 0.336017
lowerback 4.69492 -2.09298 0.557331
upperback -5.3318 -2.86643 -1.21507
thorax -8.32934 -1.48609 -1.25052
lowerneck 5.31979 5.14366 14.1048
upperneck -40.6049 2.97724 -20.8027
head -13.8079 1.74689 -12.0488
rclavicle -2.9768e-014 -2.8625e-014
rhumerus -39.9102 33.6391 -65.3792
rradius 131.992
rwrist 6.51725
rhand -17.6705 32.6258
rfingers 7.12502
rthumb 8.58831 2.82047
lclavicle -2.9768e-014 -2.8625e-014
lhumerus -24.513 -24.5539 40.2576
lradius 134.282
lwrist 37.1314
lhand -1.84229 4.64537
lfingers 7.12502
lthumb 23.8247 33.188
rfemur -18.9507 -5.52724 22.1946
rtibia 22.2585
rfoot -12.4865 8.19211
rtoes 29.0876
lfemur -15.8312 -2.85005 -19.4258
ltibia 17.616
lfoot -11.8103 -2.39368
ltoes -27.9675
1674
root 13.2858 18.3606 9.18206 13.9599 -3.72739 -0.0228703
lowerback 4.56948 -2.11131 1.13771
upperback -5.25426 -2.8395 -1.19575
thorax -8.20079 -1.50672 -1.56379
lowerneck 4.90479 5.19723 14.0466
upperneck -41.0437 3.04603 -20.5294
head -13.9223 1.72333 -11.9555
rclavicle -7.45443e-015 -4.37326e-015
rhumerus -41.1553 36.2502 -68.2317
rradius 130.206
rwrist 7.80273
rhand -15.9869 32.8238
rfingers 7.12502
rthumb 10.2128 3.09169
lclavicle -7.45443e-015 -4.37326e-015
lhumerus -26.085 -27.2109 43.1647
lradius 133.725
lwrist 35.7818
lhand 0.0812657 3.58574
lfingers 7.12502
lthumb 25.6682 31.8753
rfemur -18.97 -5.62039 22.476
rtibia 22.1315
rfoot -11.5723 8.71416
rtoes 30.3865
lfemur -16.0537 -3.17155 -18.9498
ltibia 17.8092
lfoot -11.2133 -2.45383
ltoes -26.5177
1675
root 13.2913 18.3881 9.1809 13.8399 -3.80289 -0.204607
lowerback 4.41182 -2.158 1.32201
upperback -4.87696 -2.88047 -1.1534
thorax -7.71042 -1.53097 -1.63049
lowerneck 4.25796 5.35031 14.1162
upperneck -41.4817 3.19932 -20.424
head -13.9463 1.7332 -11.948
rclavicle 2.54444e-014 6.75868e-015
rhumerus -41.3507 38.2375 -69.9368
rradius 128.945
rwrist 8.93127
rhand -12.853 33.0698
rfingers 7.12502
rthumb 13.2349 3.50998
lclavicle 2.54444e-014 6.75868e-015
lhumerus -27.961 -29.9477 46.3929
lradius 133.043
lwrist 33.9266
lhand 1.8436 4.12013
lfingers 7.12502
lthumb 27.355 32.155
rfemur -18.807 -6.1542 22.637
rtibia 22.0565
rfoot -11.1312 9.27113
rtoes 28.2842
lfemur -15.9329 -3.23615 -18.7276
ltibia 17.9293
lfoot -10.7435 -2.52718
ltoes -26.1264
1676
root 13.2945 18.4125 9.16991 13.9013 -3.87585 0.0297679
lowerback 4.40227 -2.2143 0.787628
upperback -4.7204 -2.98413 -0.972732
thorax -7.50048 -1.54462 -1.13457
lowerneck 3.82453 5.55443 13.9254
upperneck -41.9276 3.38289 -20.3996
head -14.0218 1.80909 -11.9466
rclavicle 1.94809e-014 2.46493e-014
rhumerus -41.219 39.723 -70.4146
rradius 128.232
rwrist 9.63188
rhand -11.9271 33.8511
rfingers 7.12502
rthumb 14.1272 4.35142
lclavicle 1.94809e-014 2.46493e-014
lhumerus -30.3602 -32.8382 50.2231
lradius 132.113
lwrist 32.1603
lhand 2.67529 5.04605
lfingers 7.12502
lthumb 28.1502 32.9528
rfemur -19.0476 -6.67726 22.4185
rtibia 22.1148
rfoot -10.9877 9.57426
rtoes 25.408
lfemur -16.0229 -3.24343 -18.9584
ltibia 17.9389
lfoot -10.5481 -2.57356
ltoes -27.2527
1677
root 13.3064 18.4262 9.14368 14.1716 -3.79896 0.184979
lowerback 5.09453 -2.19906 0.219351
upperback -5.1886 -2.98727 -0.551118
thorax -8.35487 -1.49946 -0.336019
lowerneck 3.71079 5.65998 13.642
upperneck -41.9478 3.38355 -20.6571
head -13.998 1.87579 -12.0057
rclavicle -4.91992e-015 3.97569e-016
rhumerus -41.8187 40.5567 -70.1532
rradius 128.332
rwrist 9.53737
rhand -12.942 34.7463
rfingers 7.12502
rthumb 13.1491 5.18095
lclavicle -4.91992e-015 3.97569e-016
lhumerus -33.6096 -36.2168 54.8061
lradius 131.112
lwrist 30.6873
lhand 3.3083 5.50072
lfingers 7.12502
lthumb 28.7551 33.3063
rfemur -19.6369 -6.87091 22.2268
rtibia 22.3461
rfoot -10.7314 9.88058
rtoes 25.3639
lfemur -16.3804 -3.56783 -19.0573
ltibia 17.8361
lfoot -10.3704 -2.52176
ltoes -27.3604
1678
root 13.3169 18.4234 9.1157 14.3095 -3.79032 0.193762
lowerback 5.12546 -2.25364 0.0493511
upperback -4.9956 -3.05805 -0.345558
thorax -8.14348 -1.51716 -0.0202229
lowerneck 3.36666 5.77295 13.5863
upperneck -42.3989 3.38582 -20.8651
head -14.1313 1.8748 -12.1515
rclavicle 2.73826e-014 5.96354e-015
rhumerus -40.6075 40.2654 -68.7932
rradius 128.918
rwrist 8.94251
rhand -13.2174 34.7862
rfingers 7.12502
rthumb 12.8837 5.20383
lclavicle 2.73826e-014 5.96354e-015
lhumerus -35.7872 -38.7849 57.747
lradius 130.206
lwrist 29.4495
lhand 4.44443 5.80019
lfingers 7.12502
lthumb 29.8399 33.4163
rfemur -20.0152 -6.59429 22.0568
rtibia 22.568
rfoot -10.2874 10.29
rtoes 28.3771
lfemur -16.6521 -3.35811 -19.0785
ltibia 17.8219
lfoot -10.3285 -2.94729
ltoes -26.3913
1679
root 13.3199 18.4138 9.08623 14.3896 -3.73447 0.0622627
lowerback 5.10719 -2.31461 -0.00679176
upperback -4.66676 -3.12551 -0.132476
thorax -7.76279 -1.54146 0.232631
lowerneck 3.04536 5.87467 13.5745
upperneck -42.8646 3.37981 -21.0793
head -14.2807 1.86358 -12.317
rclavicle 5.01931e-015 3.97569e-016
rhumerus -38.6337 38.8711 -66.5894
rradius 129.9
rwrist 7.77371
rhand -14.2676 34.212
rfingers 7.12502
rthumb 11.8711 4.56849
lclavicle 5.01931e-015 3.97569e-016
lhumerus -37.4567 -40.7864 59.7266
lradius 129.519
lwrist 28.0451
lhand 6.10401 5.56358
lfingers 7.12502
lthumb 31.4224 32.8837
rfemur -20.1668 -5.91369 22.0238
rtibia 22.7355
rfoot -10.5115 10.1047
rtoes 28.9845
lfemur -16.9138 -3.10564 -18.9253
ltibia 17.9461
lfoot -10.5881 -3.3639
ltoes -25.1894
1680
root 13.3225 18.4041 9.0454 14.5422 -3.39179 -0.312911
lowerback 5.38584 -2.46364 0.34601
upperback -4.50248 -3.27913 0.0650556
thorax -7.75725 -1.6292 0.269536
lowerneck 2.8895 6.0441 13.7766
upperneck -43.1687 3.53238 -21.3713
head -14.3288 1.91655 -12.5465
rclavicle 5.36719e-014 -3.97569e-015
rhumerus -36.8802 36.4648 -64.2443
rradius 131.331
rwrist 6.34655
rhand -16.1457 33.3886
rfingers 7.12502
rthumb 10.0596 3.64908
lclavicle 5.36719e-014 -3.97569e-015
lhumerus -38.9648 -42.5469 60.878
lradius 129.121
lwrist 25.8864
lhand 7.11417 4.64512
lfingers 7.12502
lthumb 32.3844 31.7732
rfemur -20.4207 -4.91421 22.2912
rtibia 22.951
rfoot -11.2099 9.26945
rtoes 27.6906
lfemur -17.3191 -3.58036 -18.3433
ltibia 18.1178
lfoot -11.0184 -3.33043
ltoes -24.9983
1681
root 13.3277 18.3862 9.00428 14.5246 -3.08647 -0.396738
lowerback 5.92054 -2.64752 0.593116
upperback -4.38531 -3.50626 -0.0178419
thorax -7.96489 -1.75422 0.0966608
lowerneck 2.98128 6.17779 14.0887
upperneck -43.4701 3.78101 -21.4021
head -14.4194 1.97296 -12.6933
rclavicle 2.49972e-014 1.11319e-014
rhumerus -35.629 33.5036 -62.2388
rradius 133.176
rwrist 4.48346
rhand -18.143 32.3227
rfingers 7.12502
rthumb 8.13237 2.49914
lclavicle 2.49972e-014 1.11319e-014
lhumerus -39.7463 -43.6279 60.3681
lradius 129.616
lwrist 25.7237
lhand 11.6224 5.64559
lfingers 7.12502
lthumb 36.6635 31.7963
rfemur -20.5918 -4.15013 22.237
rtibia 23.1954
rfoot -11.776 8.82035
rtoes 28.057
lfemur -17.6031 -4.0114 -18.133
ltibia 18.3746
lfoot -11.559 -3.34251
ltoes -25.5591
1682
root 13.3334 18.3522 8.96971 14.4121 -2.93275 -0.232337
lowerback 6.44448 -2.76472 0.651104
upperback -4.31741 -3.67127 -0.239724
thorax -8.21848 -1.8427 -0.121264
lowerneck 3.07174 6.18032 14.2663
upperneck -43.52 3.88193 -21.2538
head -14.4407 1.97544 -12.6747
rclavicle -5.50137e-014 -3.97569e-015
rhumerus -34.6548 29.9956 -60.1618
rradius 135.138
rwrist 1.47822
rhand -18.9976 31.4925
rfingers 7.12502
rthumb 7.30749 1.63869
lclavicle -5.50137e-014 -3.97569e-015
lhumerus -40.2824 -44.2402 59.1956
lradius 130.453
lwrist 25.6383
lhand 12.4655 4.90721
lfingers 7.12502
lthumb 37.4609 30.8511
rfemur -20.5931 -3.87136 21.969
rtibia 23.3844
rfoot -12.6738 8.77892
rtoes 27.3743
lfemur -17.804 -4.302 -18.286
ltibia 18.7719
lfoot -12.3176 -3.1804
ltoes -26.0879
1683
root 13.3329 18.3022 8.93339 14.3378 -2.80264 -0.415746
lowerback 7.01688 -2.79841 1.04747
upperback -4.35569 -3.68375 -0.393761
thorax -8.63304 -1.87412 -0.470654
lowerneck 3.10682 6.11359 14.362
upperneck -43.1921 3.87375 -21.1243
head -14.2873 1.96649 -12.566
rclavicle 3.36443e-014 -8.34896e-015
rhumerus -33.8939 25.773 -57.9396
rradius 136.766
rwrist -1.87609
rhand -22.8872 30.2608
rfingers 7.12502
rthumb 3.55206 0.310618
lclavicle 3.36443e-014 -8.34896e-015
lhumerus -40.3922 -44.3185 57.3019
lradius 131.594
lwrist 26.4379
lhand 14.1477 4.85285
lfingers 7.12502
lthumb 39.0488 30.3589
rfemur -20.6581 -3.32211 22.0843
rtibia 23.587
rfoot -13.5009 8.59599
rtoes 26.7232
lfemur -18.0145 -4.61487 -18.0349
ltibia 19.2079
lfoot -13.092 -2.7314
ltoes -26.7607
1684
root 13.3269 18.254 8.89305 14.1516 -2.75761 -0.758923
lowerback 7.70399 -2.79971 1.65343
upperback -4.2313 -3.6341 -0.700824
thorax -8.9631 -1.89367 -1.10891
lowerneck 3.00288 6.01544 14.5324
upperneck -42.9356 3.87016 -20.8118
head -14.1488 1.92143 -12.3886
rclavicle -1.94809e-014 1.11319e-014
rhumerus -33.1838 20.8993 -56.0658
rradius 137.796
rwrist -4.31507
rhand -25.6994 29.9758
rfingers 7.12502
rthumb 0.836114 -0.00231957
lclavicle -1.94809e-014 1.11319e-014
lhumerus -39.2357 -43.6855 53.8516
lradius 132.83
lwrist 28.3794
lhand 15.5306 5.26876
lfingers 7.12502
lthumb 40.3509 30.388
rfemur -20.7017 -2.47772 22.3749
rtibia 23.8686
rfoot -14.104 8.08775
rtoes 26.4123
lfemur -18.0949 -4.92312 -17.6053
ltibia 19.5958
lfoot -13.6281 -2.12862
ltoes -27.1451
